<svg xmlns="http://www.w3.org/2000/svg" id="canvas" viewBox="874.542 342.986 192.087 194.404"><path d="M 914.69,389.41 C 913.64 391.40, 914.59 393.60, 915.27 398.40 C 915.96 403.21, 916.90 406.56, 918.11 413.43 C 919.31 420.30, 920.11 424.95, 921.28 432.75 C 922.45 440.56, 923.08 444.87, 923.97 452.47 C 924.86 460.06, 925.23 463.94, 925.72 470.74 C 926.21 477.55, 926.33 480.82, 926.41 486.48 C 926.48 492.15, 925.91 494.90, 926.11 499.06 C 926.30 503.23, 926.15 505.66, 927.38 507.31 C 928.62 508.95, 931.06 508.94, 932.28 507.29 C 933.50 505.64, 933.32 503.27, 933.50 499.05 C 933.68 494.83, 933.57 491.97, 933.19 486.21 C 932.81 480.45, 932.30 477.11, 931.59 470.23 C 930.89 463.36, 930.49 459.49, 929.66 451.83 C 928.83 444.17, 928.35 439.82, 927.43 431.93 C 926.51 424.04, 925.94 419.33, 925.04 412.37 C 924.13 405.41, 923.80 401.93, 922.89 397.14 C 921.99 392.35, 922.15 389.98, 920.51 388.43 C 918.87 386.89, 915.73 387.42, 914.69 389.41" style="stroke: #00c95a; fill: #00c95a;"/><path d="M 886.74,394.65 C 888.31 393.23, 887.86 391.23, 888.30 388.12 C 888.74 385.01, 887.82 382.97, 888.93 379.09 C 890.05 375.22, 890.50 372.59, 893.87 368.74 C 897.25 364.89, 899.93 362.85, 905.80 359.86 C 911.67 356.87, 915.66 355.50, 923.22 353.80 C 930.77 352.09, 935.45 351.47, 943.58 351.33 C 951.71 351.19, 956.42 351.63, 963.88 353.11 C 971.33 354.58, 975.27 355.99, 980.86 358.69 C 986.45 361.39, 988.95 363.38, 991.85 366.60 C 994.75 369.82, 995.25 371.40, 995.36 374.79 C 995.47 378.19, 994.80 379.82, 992.39 383.56 C 989.98 387.29, 987.70 389.68, 983.30 393.47 C 978.90 397.27, 975.53 399.46, 970.37 402.54 C 965.21 405.61, 961.60 406.54, 957.49 408.86 C 953.38 411.19, 951.07 411.61, 949.83 414.16 C 948.59 416.71, 949.17 419.85, 951.30 421.60 C 953.43 423.36, 955.35 422.70, 960.46 422.93 C 965.58 423.17, 969.35 422.39, 976.89 422.79 C 984.43 423.19, 989.52 423.38, 998.18 424.93 C 1006.83 426.48, 1012.01 427.66, 1020.18 430.54 C 1028.34 433.43, 1032.68 435.38, 1039.00 439.35 C 1045.31 443.33, 1048.14 445.86, 1051.77 450.42 C 1055.40 454.97, 1056.39 457.39, 1057.15 462.15 C 1057.91 466.91, 1057.63 469.22, 1055.56 474.23 C 1053.49 479.24, 1051.73 482.04, 1046.80 487.18 C 1041.87 492.33, 1038.45 495.10, 1030.90 499.95 C 1023.35 504.80, 1018.58 507.28, 1009.04 511.42 C 999.51 515.56, 993.83 517.50, 983.24 520.63 C 972.66 523.77, 966.79 525.08, 956.13 527.09 C 945.46 529.10, 935.04 529.24, 929.90 530.70 C 924.76 532.16, 925.02 534.36, 930.40 534.39 C 935.79 534.42, 946.03 532.82, 956.82 530.83 C 967.61 528.85, 973.58 527.55, 984.36 524.46 C 995.14 521.37, 1000.90 519.46, 1010.73 515.39 C 1020.55 511.32, 1025.48 508.96, 1033.49 504.11 C 1041.51 499.25, 1045.26 496.63, 1050.80 491.12 C 1056.34 485.61, 1058.73 482.54, 1061.19 476.55 C 1063.66 470.56, 1064.14 467.10, 1063.14 461.16 C 1062.13 455.23, 1060.44 452.11, 1056.16 446.87 C 1051.88 441.62, 1048.60 439.16, 1041.74 434.94 C 1034.89 430.72, 1030.38 428.86, 1021.89 425.76 C 1013.40 422.66, 1008.15 421.48, 999.29 419.46 C 990.43 417.45, 985.29 416.77, 977.58 415.68 C 969.87 414.60, 965.79 414.12, 960.75 414.03 C 955.70 413.95, 953.73 414.08, 952.36 415.25 C 950.99 416.42, 951.97 419.55, 953.88 419.89 C 955.78 420.22, 957.74 419.06, 961.87 416.90 C 966.00 414.74, 969.26 412.65, 974.53 409.08 C 979.81 405.52, 983.40 403.43, 988.24 399.10 C 993.09 394.77, 995.90 392.39, 998.77 387.44 C 1001.64 382.49, 1002.99 379.42, 1002.58 374.36 C 1002.18 369.30, 1000.61 366.34, 996.76 362.14 C 992.91 357.93, 989.73 356.20, 983.35 353.33 C 976.98 350.47, 972.86 349.26, 964.89 347.79 C 956.92 346.33, 952.07 345.90, 943.50 346.00 C 934.93 346.09, 930.13 346.65, 922.04 348.27 C 913.95 349.89, 909.79 351.07, 903.05 354.09 C 896.31 357.11, 892.93 359.01, 888.33 363.35 C 883.74 367.69, 882.25 370.93, 880.09 375.77 C 877.93 380.62, 877.47 383.66, 877.55 387.56 C 877.62 391.45, 878.62 393.83, 880.46 395.25 C 882.30 396.67, 885.17 396.08, 886.74 394.65" style="stroke: #00c95a; fill: #00c95a;"/></svg>